<svg width="238" height="61" viewBox="0 0 238 61" fill="none" xmlns="http://www.w3.org/2000/svg">
<rect x="6.38098" y="30.8752" width="6.8725" height="6.8725" fill="white"/>
<rect x="13.2535" y="24.0028" width="6.8725" height="6.8725" fill="white"/>
<rect x="20.1259" y="17.1302" width="6.8725" height="6.8725" fill="white"/>
<rect x="26.9987" y="10.2578" width="6.8725" height="6.8725" fill="white"/>
<rect x="33.8711" y="3.38525" width="6.8725" height="6.8725" fill="white"/>
<rect x="40.7438" y="10.2578" width="6.8725" height="6.8725" fill="white"/>
<rect x="26.9987" y="37.7478" width="6.8725" height="6.8725" fill="white"/>
<rect x="33.8711" y="30.8752" width="6.8725" height="6.8725" fill="white"/>
<rect x="40.7438" y="24.0027" width="6.8725" height="6.8725" fill="white"/>
<rect x="47.6162" y="17.1302" width="6.8725" height="6.8725" fill="white"/>
<rect x="13.2534" y="37.7478" width="6.8725" height="6.8725" fill="white"/>
<rect x="0.510864" y="51.4928" width="6.8725" height="6.8725" fill="#1FD5F9"/>
<rect x="7.3833" y="51.4928" width="6.8725" height="6.8725" fill="#1FD5F9"/>
<rect x="0.510864" y="44.6202" width="6.8725" height="6.8725" fill="#1FD5F9"/>
<rect x="20.1259" y="44.6202" width="6.8725" height="6.8725" fill="white"/>
<path d="M79.897 13.3952V45.5552H96.601V49.8752H75.049V13.3952H79.897ZM106.082 19.7312H100.994V13.3952H106.082V19.7312ZM105.89 49.8752H101.186V24.1472H105.89V49.8752ZM123.454 49.6352L131.806 24.1472H136.606L128.014 49.8752H118.846L110.254 24.1472H115.054L123.454 49.6352ZM163.406 36.6272C163.406 37.1072 163.358 37.7792 163.31 38.4032H143.87C144.254 43.9712 147.086 46.9472 151.358 46.9472C155.102 46.9472 157.07 45.2192 158.03 42.3392H162.83C161.342 47.8112 157.166 50.4032 151.358 50.4032C143.582 50.4032 139.118 44.7392 139.118 37.0112C139.118 29.1872 143.678 23.6192 151.31 23.6192C158.51 23.6192 163.406 28.7072 163.406 36.6272ZM151.31 27.0752C147.23 27.0752 144.494 29.7152 143.918 34.8512H158.606C158.318 30.2432 155.534 27.0752 151.31 27.0752Z" fill="white"/>
<path d="M176.554 8.3573C176.554 22.5256 171.286 36.1835 171.286 50.5054" stroke="#1FD5F9" stroke-width="3" stroke-linecap="round"/>
<path d="M164.261 12.7477C166.703 -6.79067 220.549 5.87242 181.432 29.4313C173.516 34.1991 163.973 38.2122 154.602 38.2122" stroke="#1FD5F9" stroke-width="3" stroke-linecap="round"/>
<path d="M188.653 31.3832C190.049 30.1424 198.479 25.6246 197.238 27.7973C195.272 31.2375 185.344 60.1014 197.238 51.0064C209.082 41.949 212.237 24.0771 228.41 26.4314C245.344 29.5469 210.761 21.0016 214.13 38.2687C216.157 48.6587 230.531 49.8127 236.393 48.1379" stroke="#1FD5F9" stroke-width="3" stroke-linecap="round"/>
<path d="M202.627 21.3535C204.698 22.3318 204.854 20.5922 208.114 19.1635" stroke="#1FD5F9" stroke-width="3" stroke-linecap="round"/>
</svg>
