<svg width="238" height="61" viewBox="0 0 238 61" fill="none" xmlns="http://www.w3.org/2000/svg">
<rect x="6.38098" y="30.7502" width="6.8725" height="6.8725" fill="black"/>
<rect x="13.2535" y="23.8778" width="6.8725" height="6.8725" fill="black"/>
<rect x="20.1259" y="17.0052" width="6.8725" height="6.8725" fill="black"/>
<rect x="26.9987" y="10.1328" width="6.8725" height="6.8725" fill="black"/>
<rect x="33.8711" y="3.26025" width="6.8725" height="6.8725" fill="black"/>
<rect x="40.7438" y="10.1328" width="6.8725" height="6.8725" fill="black"/>
<rect x="26.9987" y="37.6228" width="6.8725" height="6.8725" fill="black"/>
<rect x="33.8711" y="30.7502" width="6.8725" height="6.8725" fill="black"/>
<rect x="40.7438" y="23.8777" width="6.8725" height="6.8725" fill="black"/>
<rect x="47.6162" y="17.0052" width="6.8725" height="6.8725" fill="black"/>
<rect x="13.2534" y="37.6228" width="6.8725" height="6.8725" fill="black"/>
<rect x="0.510864" y="51.3678" width="6.8725" height="6.8725" fill="#1FD5F9"/>
<rect x="7.3833" y="51.3678" width="6.8725" height="6.8725" fill="#1FD5F9"/>
<rect x="0.510864" y="44.4952" width="6.8725" height="6.8725" fill="#1FD5F9"/>
<rect x="20.1259" y="44.4952" width="6.8725" height="6.8725" fill="black"/>
<path d="M79.897 13.2702V45.4302H96.601V49.7502H75.049V13.2702H79.897ZM106.082 19.6062H100.994V13.2702H106.082V19.6062ZM105.89 49.7502H101.186V24.0222H105.89V49.7502ZM123.454 49.5102L131.806 24.0222H136.606L128.014 49.7502H118.846L110.254 24.0222H115.054L123.454 49.5102ZM163.406 36.5022C163.406 36.9822 163.358 37.6542 163.31 38.2782H143.87C144.254 43.8462 147.086 46.8222 151.358 46.8222C155.102 46.8222 157.07 45.0942 158.03 42.2142H162.83C161.342 47.6862 157.166 50.2782 151.358 50.2782C143.582 50.2782 139.118 44.6142 139.118 36.8862C139.118 29.0622 143.678 23.4942 151.31 23.4942C158.51 23.4942 163.406 28.5822 163.406 36.5022ZM151.31 26.9502C147.23 26.9502 144.494 29.5902 143.918 34.7262H158.606C158.318 30.1182 155.534 26.9502 151.31 26.9502Z" fill="black"/>
<path d="M176.554 8.2323C176.554 22.4006 171.286 36.0585 171.286 50.3804" stroke="#1FD5F9" stroke-width="3" stroke-linecap="round"/>
<path d="M164.261 12.6227C166.703 -6.91567 220.549 5.74742 181.432 29.3063C173.516 34.0741 163.973 38.0872 154.602 38.0872" stroke="#1FD5F9" stroke-width="3" stroke-linecap="round"/>
<path d="M188.653 31.2582C190.049 30.0174 198.479 25.4996 197.238 27.6723C195.272 31.1125 185.344 59.9764 197.238 50.8814C209.082 41.824 212.237 23.9521 228.41 26.3064C245.344 29.4219 210.761 20.8766 214.13 38.1437C216.157 48.5337 230.531 49.6877 236.393 48.0129" stroke="#1FD5F9" stroke-width="3" stroke-linecap="round"/>
<path d="M202.627 21.2285C204.698 22.2068 204.854 20.4672 208.114 19.0385" stroke="#1FD5F9" stroke-width="3" stroke-linecap="round"/>
</svg>
